<!-- fc_logo.svg 파일 내용 -->
<svg xmlns="http://www.w3.org/2000/svg" width="200" height="100" viewBox="0 0 1322 691">
    <path d="M211.1 1.1C151.5 5.6 94.9 34.3 56.2 79.5c-59.9 69.9-72.3 167.8-31.6 249.4 12.6 25.3 26.6 44.4 46.3 63.3 35.6 34.1 78.5 54.8 128.6 62 13.7 2 48.5 1.7 62-.6 25.8-4.2 46.1-10.6 67.5-21.2 23-11.4 39.2-22.8 56.9-39.9 35.5-34.3 57.5-74.9 66.7-123.4 3.6-18.6 4.4-49.4 2-68.9-8.5-66.2-44.7-124.8-100.1-161.7C321.7 16.6 284.7 4.1 244 1c-14.8-1.1-17.6-1.1-32.9.1zm48.2 106.3c-.4.7-4.4 7-8.8 14l-7.9 12.6H126.1l8.7-14 8.7-13.9 58.3-.1c48.9 0 58.2.2 57.5 1.4zm70.6 69.9c24.3 38.4 44.1 70 44.1 70.3 0 .2-7.5.3-16.7.2l-16.7-.3-8.8-14-8.8-14-26.4-.5-26.3-.5 8.6-13.7 8.6-13.8h17.4l-10.1-16c-5.5-8.8-10.4-15.8-10.7-15.5-.3.4-13 20.3-28.2 44.3l-27.5 43.7-73.7.3c-40.5.1-73.7 0-73.7-.2 0-.3 7.9-12.9 17.5-28.1 9.6-15.2 17.5-27.8 17.5-28 0-.3-5.8-.5-13-.5H90.1l8.7-14 8.7-13.9 54.8-.1c30.2 0 54.7.4 54.5.8-.1.4-4 6.7-8.6 14l-8.4 13.2h-49.6l-8.3 13.2c-4.6 7.2-8.8 13.7-9.2 14.5-.7 1.1 6.2 1.3 39.2 1.3h39.9l32.8-51.8c18-28.4 34.3-54.1 36.2-57.1 1.9-2.9 3.8-4.9 4.2-4.5.5.5 20.7 32.3 44.9 70.7zM113 264.5c3.9 2 6 6.3 6 12v4.5h-4.4c-4.1 0-4.5-.2-5.1-3-.9-4.3-4-6-10.7-6-7.4 0-9.8 2-9.8 8.4 0 6.7 1.4 7.6 12.3 7.6 11.4 0 14.6 1.6 17.2 8.4 2.3 5.9 1.7 17.8-1 21.9-3.1 4.7-6.3 5.7-18.7 5.7-9.5 0-11.8-.3-14.2-1.9-4-2.7-5.5-5.7-5.6-11.4V306h4.5c4.3 0 4.6.2 5.2 3 .8 4.4 3.7 6 10.6 6 8.9 0 9.7-.7 9.7-9.1 0-6.5-.1-7-2.6-7.9-1.4-.6-6.3-1-11-1C82 297 79 293.8 79 279.8c0-9.3 1-11.6 6.4-14.9 4.1-2.5 23-2.8 27.6-.4zm53 0c5.9 3.1 7 5.7 7 17.2 0 16.7-1.7 18.5-18.5 19.3l-11 .5-.3 11.2-.3 11.3H133v-61h15c11.4 0 15.8.4 18 1.5zm55.6 2.7 3.4 3.8v45l-3.4 3.8-3.4 3.7-11.2.3c-12.5.4-15.6-.4-19.5-5-2.5-2.9-2.5-3-2.5-25.2 0-24.4.1-24.8 6.4-28.7 2.7-1.7 4.6-1.9 14.9-1.7l11.9.3 3.4 3.7zm51.2-2.2c4.5 2.7 6.2 7.4 6.2 16.5 0 8.4-1.3 12.1-5.6 15.4l-2.7 2.1 4.9 11.7c2.7 6.4 5.1 12.1 5.3 12.5.1.5-2.3.8-5.4.6l-5.7-.3-4.7-11.5-4.8-11.5-5.6-.3-5.7-.3V324h-10v-61h15.3c13.5 0 15.6.2 18.5 2z"/>
    <!-- SVG Path continues -->
</svg>
